<?xml version="1.0" encoding="UTF-8" standalone="no"?>
<svg
   xmlns:dc="http://purl.org/dc/elements/1.1/"
   xmlns:cc="http://creativecommons.org/ns#"
   xmlns:rdf="http://www.w3.org/1999/02/22-rdf-syntax-ns#"
   xmlns:svg="http://www.w3.org/2000/svg"
   xmlns="http://www.w3.org/2000/svg"
   xmlns:sodipodi="http://sodipodi.sourceforge.net/DTD/sodipodi-0.dtd"
   xmlns:inkscape="http://www.inkscape.org/namespaces/inkscape"
   viewBox="0 0 47 57"
   x="0px"
   y="0px"
   version="1.1"
   id="svg14"
   sodipodi:docname="book.svg"
   width="47"
   height="57"
   inkscape:version="0.92.5 (2060ec1f9f, 2020-04-08)">
  <metadata
     id="metadata20">
    <rdf:RDF>
      <cc:Work
         rdf:about="">
        <dc:format>image/svg+xml</dc:format>
        <dc:type
           rdf:resource="http://purl.org/dc/dcmitype/StillImage" />
        <dc:title></dc:title>
      </cc:Work>
    </rdf:RDF>
  </metadata>
  <defs
     id="defs18" />
  <sodipodi:namedview
     pagecolor="#ffffff"
     bordercolor="#666666"
     borderopacity="1"
     objecttolerance="10"
     gridtolerance="10"
     guidetolerance="10"
     inkscape:pageopacity="0"
     inkscape:pageshadow="2"
     inkscape:window-width="1920"
     inkscape:window-height="1015"
     id="namedview16"
     showgrid="false"
     fit-margin-top="0"
     fit-margin-left="0"
     fit-margin-right="0"
     fit-margin-bottom="0"
     inkscape:zoom="2.95"
     inkscape:cx="-11.576271"
     inkscape:cy="21"
     inkscape:window-x="0"
     inkscape:window-y="0"
     inkscape:window-maximized="1"
     inkscape:current-layer="svg14" />
  <g
     id="g8"
     transform="translate(-9,-4)">
    <path
       d="M 55,4 H 16 a 7.008,7.008 0 0 0 -7,7 v 43 a 7.008,7.008 0 0 0 7,7 h 39 a 1,1 0 0 0 1,-1 V 5 A 1,1 0 0 0 55,4 Z M 54,47 H 20 V 6 H 54 Z M 11,11 a 5.006,5.006 0 0 1 5,-5 h 2 v 41 h -2 a 6.973,6.973 0 0 0 -5,2.111 z m 5,48 a 5,5 0 0 1 0,-10 h 38 v 2 H 19 v 2 h 4 v 3 a 1,1 0 0 0 1.316,0.949 L 27,56.054 29.684,56.949 A 1.01,1.01 0 0 0 30,57 1,1 0 0 0 31,56 v -3 h 23 v 2 H 33 v 2 h 21 v 2 z m 9,-6 h 4 v 1.613 l -1.684,-0.562 a 1,1 0 0 0 -0.632,0 L 25,54.613 Z"
       id="path2"
       inkscape:connector-curvature="0" />
    <rect
       x="19"
       y="55"
       width="2"
       height="2"
       id="rect4" />
    <path
       d="m 26.4,37.94 a 2.983,2.983 0 0 0 3.556,-3.4 l 2.732,-1.472 A 5.97,5.97 0 0 0 40.479,34.7 L 43.2,36.965 A 2.969,2.969 0 0 0 43,38 3,3 0 1 0 46,35 2.966,2.966 0 0 0 44.478,35.429 L 42.047,33.4 a 5.984,5.984 0 0 0 -2.109,-9.381 l 1.22,-3.869 a 3,3 0 1 0 -2.967,-3.895 v 0 a 3,3 0 0 0 1.062,3.286 L 38,23.525 C 37.836,23.512 37.671,23.5 37.5,23.5 a 5.961,5.961 0 0 0 -3.381,1.048 l -1.7,-2.127 a 3.491,3.491 0 0 0 -2.219,-5.35 3.5,3.5 0 1 0 0.683,6.632 l 1.8,2.244 a 5.971,5.971 0 0 0 -0.9,5.346 l -2.767,1.491 a 2.957,2.957 0 0 0 -1.408,-0.723 3.00011,3.00011 0 1 0 -1.2,5.879 z M 40.1,16.861 A 1,1 0 0 1 41.94,16.7 1,1 0 1 1 40.1,16.861 Z M 47,38 a 1,1 0 1 1 -1,-1 1,1 0 0 1 1,1 z m -5.5,-8.5 a 4,4 0 1 1 -4,-4 4,4 0 0 1 4,4 z M 29.2,21.97 A 1.5,1.5 0 0 1 29.5,19 1.47,1.47 0 0 1 29.8,19.031 1.5,1.5 0 1 1 29.2,21.97 Z M 27,34 a 0.978,0.978 0 0 1 0.2,0.021 1,1 0 0 1 0.78,1.178 v 0 A 1,1 0 1 1 27,34 Z"
       id="path6"
       inkscape:connector-curvature="0" />
  </g>
</svg>
