<?xml version="1.0" encoding="UTF-8" standalone="no"?>
<svg
   xmlns:dc="http://purl.org/dc/elements/1.1/"
   xmlns:cc="http://creativecommons.org/ns#"
   xmlns:rdf="http://www.w3.org/1999/02/22-rdf-syntax-ns#"
   xmlns:svg="http://www.w3.org/2000/svg"
   xmlns="http://www.w3.org/2000/svg"
   xmlns:sodipodi="http://sodipodi.sourceforge.net/DTD/sodipodi-0.dtd"
   xmlns:inkscape="http://www.inkscape.org/namespaces/inkscape"
   version="1.1"
   x="0px"
   y="0px"
   viewBox="0 0 204.05585 186.3"
   xml:space="preserve"
   id="svg14"
   sodipodi:docname="noun_conference_729734.svg"
   width="204.05585"
   height="186.3"
   inkscape:version="0.92.5 (2060ec1f9f, 2020-04-08)"><metadata
     id="metadata20"><rdf:RDF><cc:Work
         rdf:about=""><dc:format>image/svg+xml</dc:format><dc:type
           rdf:resource="http://purl.org/dc/dcmitype/StillImage" /><dc:title></dc:title></cc:Work></rdf:RDF></metadata><defs
     id="defs18" /><sodipodi:namedview
     pagecolor="#ffffff"
     bordercolor="#666666"
     borderopacity="1"
     objecttolerance="10"
     gridtolerance="10"
     guidetolerance="10"
     inkscape:pageopacity="0"
     inkscape:pageshadow="2"
     inkscape:window-width="1920"
     inkscape:window-height="1015"
     id="namedview16"
     showgrid="false"
     fit-margin-top="0"
     fit-margin-left="0"
     fit-margin-right="0"
     fit-margin-bottom="0"
     inkscape:zoom="0.7375"
     inkscape:cx="-36.849243"
     inkscape:cy="60.3"
     inkscape:window-x="0"
     inkscape:window-y="0"
     inkscape:window-maximized="1"
     inkscape:current-layer="svg14" /><g
     id="g8"
     transform="translate(-26.544158,-34)"><path
       d="m 226.7,34 h -130 c -2.2,0 -3.9,1.8 -3.9,4 0,2.2 1.8,4 3.9,4 H 103 V 66.9 C 101,66.2 97.9,65.8 95.2,65.8 78,65.8 63,81.1 63,98.5 v 20.8 c 0,8.8 6,16.6 14.7,19.1 -2.6,2.6 -8.1,4.8 -13.8,7 -14.6,5.7 -34.7,13.5 -37.3,39.8 -0.5,4.9 2.4,9.6 7,11.5 l 54,22.1 c 2.4,1 4.9,1.5 7.4,1.5 2.5,0 5,-0.5 7.4,-1.5 l 53.9,-22.1 c 4.6,-1.9 7.5,-6.4 7,-11.3 -1.4,-14 -7.8,-23.5 -15.6,-28.5 h 28 c 2.2,0 3.9,-1.8 3.9,-4 0,-2.2 -1.8,-4 -3.9,-4 H 166 v -25 h 50.5 c 2.2,0 4.5,-1.7 4.5,-3.9 V 42 h 5.7 c 2.2,0 3.9,-1.8 3.9,-4 0,-2.2 -1.7,-4 -3.9,-4 z m -71.2,152.1 c 0.1,1.5 -0.7,2.9 -2.1,3.5 l -53.9,22.1 c -2.9,1.2 -6,1.2 -8.9,0 l -54,-22.1 c -1.4,-0.6 -2.3,-2 -2.2,-3.5 2.2,-21.5 18.2,-27.8 32.3,-33.3 7.2,-2.8 13.4,-5.2 17.2,-9.5 1.7,-2 2.3,-4.7 1.6,-7.2 -0.8,-2.6 -2.6,-4.5 -5.2,-5.2 -5.4,-1.4 -9.2,-6.3 -9.2,-11.6 V 98.5 c 0,-13.2 11.3,-24.8 24.3,-24.8 0.2,0 0.3,0 0.5,0 0,0 0.3,0 0.3,0 12.5,0.3 24,11.8 24,24.4 v 21.3 c 0,5.3 -4.3,10.2 -9.8,11.7 -2.6,0.7 -4.9,2.7 -5.6,5.3 -0.8,2.6 -0.2,5.3 1.6,7.2 3.8,4.1 9.9,6.5 17,9.3 13.9,5.4 30,11.7 32.1,33.2 z M 158,149 h -10.3 c -2.2,0 -3.9,1.6 -3.9,3.8 0,0.5 0.1,0.8 0.3,1.3 -6,-3.8 -12.4,-6.3 -18.1,-8.5 -5.7,-2.2 -11.1,-4.3 -13.8,-7 7.2,-2 12.7,-7.5 14.5,-14.5 H 158 Z m 55,-33 H 128 V 98.1 C 128,86.6 121,76 111,70.3 V 42 h 102 z"
       id="path2"
       inkscape:connector-curvature="0" /><path
       d="m 139.3,75 h 44.8 c 2.2,0 3.9,-1.8 3.9,-4 0,-2.2 -1.8,-4 -3.9,-4 h -44.8 c -2.2,0 -3.9,1.8 -3.9,4 0,2.2 1.7,4 3.9,4 z"
       id="path4"
       inkscape:connector-curvature="0" /><path
       d="m 139.3,92 h 44.8 c 2.2,0 3.9,-1.8 3.9,-4 0,-2.2 -1.8,-4 -3.9,-4 h -44.8 c -2.2,0 -3.9,1.8 -3.9,4 0,2.2 1.7,4 3.9,4 z"
       id="path6"
       inkscape:connector-curvature="0" /></g></svg>