<?xml version="1.0" encoding="UTF-8" standalone="no"?>
<svg
   xmlns:dc="http://purl.org/dc/elements/1.1/"
   xmlns:cc="http://creativecommons.org/ns#"
   xmlns:rdf="http://www.w3.org/1999/02/22-rdf-syntax-ns#"
   xmlns:svg="http://www.w3.org/2000/svg"
   xmlns="http://www.w3.org/2000/svg"
   xmlns:sodipodi="http://sodipodi.sourceforge.net/DTD/sodipodi-0.dtd"
   xmlns:inkscape="http://www.inkscape.org/namespaces/inkscape"
   version="1.1"
   x="0px"
   y="0px"
   viewBox="0 0 64.39209 81.266113"
   enable-background="new 0 0 100 100"
   xml:space="preserve"
   id="svg8"
   sodipodi:docname="noun_Science paper_1143700.svg"
   width="64.39209"
   height="81.266113"
   inkscape:version="0.92.5 (2060ec1f9f, 2020-04-08)"><metadata
     id="metadata14"><rdf:RDF><cc:Work
         rdf:about=""><dc:format>image/svg+xml</dc:format><dc:type
           rdf:resource="http://purl.org/dc/dcmitype/StillImage" /><dc:title></dc:title></cc:Work></rdf:RDF></metadata><defs
     id="defs12" /><sodipodi:namedview
     pagecolor="#ffffff"
     bordercolor="#666666"
     borderopacity="1"
     objecttolerance="10"
     gridtolerance="10"
     guidetolerance="10"
     inkscape:pageopacity="0"
     inkscape:pageshadow="2"
     inkscape:window-width="1920"
     inkscape:window-height="1015"
     id="namedview10"
     showgrid="false"
     fit-margin-top="0"
     fit-margin-left="0"
     fit-margin-right="0"
     fit-margin-bottom="0"
     inkscape:zoom="1.888"
     inkscape:cx="-21.829379"
     inkscape:cy="28.133057"
     inkscape:window-x="0"
     inkscape:window-y="0"
     inkscape:window-maximized="1"
     inkscape:current-layer="svg8" /><path
     d="m 62.192871,3.6303716 h -1.15332 V 2.1997066 C 61.039551,0.9868166 60.052246,0 58.839356,0 H 2.2001949 C 0.9868169,0 -1e-7,0.9868166 -1e-7,2.1997066 V 75.436035 c 0,1.212891 0.986816,2.199219 2.200195,2.199219 h 1.153321 v 1.430664 c 0,1.212891 0.986816,2.200196 2.200195,2.200196 H 62.192871 c 1.212891,0 2.199219,-0.987305 2.199219,-2.200196 V 5.8300786 c 0,-1.212891 -0.986328,-2.199707 -2.199219,-2.199707 z M 59.439942,75.436035 c 0,0.330079 -0.269532,0.59961 -0.600586,0.59961 H 2.2001949 c -0.331054,0 -0.600585,-0.269531 -0.600585,-0.59961 V 2.1997066 c 0,-0.330566 0.269531,-0.600097 0.600585,-0.600097 H 58.839356 c 0.331054,0 0.600586,0.269531 0.600586,0.600097 z M 9.9643549,11.184082 c 0,-0.828613 0.6713871,-1.5000004 1.5000001,-1.5000004 h 38.110352 c 0.828125,0 1.5,0.6713874 1.5,1.5000004 0,0.828614 -0.671875,1.5 -1.5,1.5 H 11.464355 c -0.828613,0 -1.5000001,-0.671386 -1.5000001,-1.5 z m 2.1918341,28.872071 c -0.357605,0.459839 -0.671936,0.978393 -0.936707,1.545471 -0.581115,1.244568 -0.922607,2.714355 -0.922607,4.293396 0,0.441406 0.35791,0.799805 0.799805,0.799805 0.441894,0 0.799804,-0.358399 0.799804,-0.799805 0,-0.596192 0.05896,-1.171204 0.161194,-1.719727 h 8.35968 c 0.102234,0.548523 0.161255,1.123535 0.161255,1.719727 0,0.441406 0.357911,0.799805 0.799805,0.799805 0.441895,0 0.799805,-0.358399 0.799805,-0.799805 0,-1.579041 -0.341614,-3.048889 -0.922791,-4.293457 -0.26477,-0.567078 -0.579162,-1.085571 -0.936767,-1.54541 -0.461487,-0.593506 -0.992432,-1.085327 -1.575196,-1.455078 0.799195,-0.451539 1.504517,-1.105591 2.0625,-1.916016 0.288331,-0.418701 0.533265,-0.880493 0.73761,-1.371338 0.402466,-0.966736 0.634644,-2.054016 0.634644,-3.207764 0,-1.153747 -0.232178,-2.241027 -0.634644,-3.207763 -0.204346,-0.490845 -0.44928,-0.952637 -0.73761,-1.371338 -0.558105,-0.810608 -1.263611,-1.464661 -2.062927,-1.916199 0.582703,-0.369629 1.11377,-0.861511 1.575256,-1.454895 0.357666,-0.459839 0.67212,-0.978394 0.937012,-1.545471 0.581238,-1.244568 0.922913,-2.714417 0.922913,-4.293396 0,-0.441895 -0.357911,-0.799805 -0.799805,-0.799805 -0.441895,0 -0.799805,0.35791 -0.799805,0.799805 0,0.596191 -0.05902,1.171203 -0.161255,1.719726 h -8.35968 c -0.102234,-0.548522 -0.161194,-1.123535 -0.161194,-1.719726 0,-0.441895 -0.35791,-0.799805 -0.799804,-0.799805 -0.441895,0 -0.799805,0.35791 -0.799805,0.799805 0,1.578979 0.341553,3.048767 0.922729,4.293335 0.264832,0.567139 0.579285,1.085632 0.93689,1.545532 0.461487,0.593384 0.992432,1.085266 1.575134,1.454895 -0.799255,0.451538 -1.504577,1.105591 -2.062683,1.916199 -0.28833,0.418762 -0.533264,0.880676 -0.73761,1.371582 -0.402343,0.966675 -0.63446,2.053833 -0.63446,3.207519 0,1.153687 0.232117,2.240845 0.63446,3.20752 0.204346,0.490906 0.44928,0.95282 0.73761,1.371582 0.557984,0.810425 1.263184,1.464477 2.062317,1.916015 -0.582702,0.369752 -1.113647,0.861573 -1.575073,1.455079 z m 0.36499,2.519531 c 0.132324,-0.326477 0.282471,-0.634277 0.450257,-0.919922 h 6.532043 c 0.167847,0.285645 0.317932,0.593445 0.450317,0.919922 z m 1.875611,-2.519531 c 0.559692,-0.392029 1.182006,-0.617676 1.840515,-0.617676 0.658508,0 1.280822,0.225647 1.840576,0.617676 z m -1.8219,-10.929688 h 7.325195 c 0.143616,0.289978 0.267212,0.597046 0.367676,0.919922 h -8.060486 c 0.100464,-0.322876 0.224061,-0.629944 0.367615,-0.919922 z m -0.678405,2.979492 c 0,-0.155273 0.0084,-0.307861 0.01813,-0.45996 h 8.645874 c 0.0098,0.152099 0.01813,0.304687 0.01813,0.45996 0,0.155274 -0.0084,0.307862 -0.01813,0.459961 h -8.645874 c -0.0098,-0.152099 -0.01813,-0.304687 -0.01813,-0.459961 z m 0.31079,2.059571 h 8.060486 c -0.100464,0.322876 -0.22406,0.629943 -0.367676,0.919922 H 12.57489 c -0.143554,-0.289978 -0.267151,-0.597046 -0.367615,-0.919922 z m 7.74646,-12.529297 c -0.132385,0.326477 -0.282531,0.634277 -0.450378,0.919922 H 12.971558 C 12.803711,22.270508 12.653565,21.962708 12.52124,21.636231 Z m -1.876403,2.519531 c -0.559632,0.391724 -1.181763,0.617188 -1.840027,0.617188 -0.658264,0 -1.280396,-0.225464 -1.839966,-0.617188 z m -1.840027,2.375977 c 0.917114,0 1.767334,0.369384 2.469055,0.995117 h -4.937927 c 0.701599,-0.625733 1.551757,-0.995117 2.468872,-0.995117 z m 2.469055,10.15332 c -0.701721,0.625732 -1.551941,0.995117 -2.469055,0.995117 -0.917115,0 -1.767273,-0.369385 -2.468872,-0.995117 z m 6.381042,-14.579102 c 0,-0.441894 0.357911,-0.799804 0.799805,-0.799804 h 8.628906 c 0.441407,0 0.799805,0.35791 0.799805,0.799804 0,0.441895 -0.358398,0.799805 -0.799805,0.799805 h -8.628906 c -0.441894,0 -0.799805,-0.35791 -0.799805,-0.799805 z m 12.825196,3.272461 h 11.030273 c 0.992188,0 1.799805,-0.807129 1.799805,-1.799804 v -2.945801 c 0,-0.992676 -0.807617,-1.799805 -1.799805,-1.799805 H 37.912598 c -0.992188,0 -1.799805,0.807129 -1.799805,1.799805 v 2.945801 c 0,0.992675 0.807617,1.799804 1.799805,1.799804 z m -0.200196,-4.745605 c 0,-0.110352 0.08984,-0.200195 0.200196,-0.200195 h 11.030273 c 0.110352,0 0.200195,0.08984 0.200195,0.200195 v 2.945801 c 0,0.110351 -0.08984,0.200195 -0.200195,0.200195 H 37.912598 c -0.110352,0 -0.200196,-0.08984 -0.200196,-0.200195 z m -12.625,11.473144 c 0,-0.441894 0.357911,-0.799804 0.799805,-0.799804 h 8.628906 c 0.441407,0 0.799805,0.35791 0.799805,0.799804 0,0.441895 -0.358398,0.799805 -0.799805,0.799805 h -8.628906 c -0.441894,0 -0.799805,-0.35791 -0.799805,-0.799805 z m 11.025391,1.472657 c 0,0.992675 0.807617,1.799804 1.799805,1.799804 h 11.030273 c 0.992188,0 1.799805,-0.807129 1.799805,-1.799804 v -2.945801 c 0,-0.992676 -0.807617,-1.799805 -1.799805,-1.799805 H 37.912598 c -0.992188,0 -1.799805,0.807129 -1.799805,1.799805 z m 1.599609,-2.945801 c 0,-0.110352 0.08984,-0.200195 0.200196,-0.200195 h 11.030273 c 0.110352,0 0.200195,0.08984 0.200195,0.200195 v 2.945801 c 0,0.110351 -0.08984,0.200195 -0.200195,0.200195 H 37.912598 c -0.110352,0 -0.200196,-0.08984 -0.200196,-0.200195 z m -12.625,11.473144 c 0,-0.441894 0.357911,-0.799804 0.799805,-0.799804 h 8.628906 c 0.441407,0 0.799805,0.35791 0.799805,0.799804 0,0.441407 -0.358398,0.799805 -0.799805,0.799805 h -8.628906 c -0.441894,0 -0.799805,-0.358398 -0.799805,-0.799805 z m 11.025391,1.472657 c 0,0.992187 0.807617,1.799804 1.799805,1.799804 h 11.030273 c 0.992188,0 1.799805,-0.807617 1.799805,-1.799804 v -2.945801 c 0,-0.992676 -0.807617,-1.799805 -1.799805,-1.799805 H 37.912598 c -0.992188,0 -1.799805,0.807129 -1.799805,1.799805 z m 1.599609,-2.945801 c 0,-0.110352 0.08984,-0.200195 0.200196,-0.200195 h 11.030273 c 0.110352,0 0.200195,0.08984 0.200195,0.200195 v 2.945801 c 0,0.110351 -0.08984,0.200195 -0.200195,0.200195 H 37.912598 c -0.110352,0 -0.200196,-0.08984 -0.200196,-0.200195 z M 50.989746,54.98584 c -0.768371,-1.333008 -2.545654,-1.841797 -4.797302,-1.567871 -0.888367,-2.085693 -2.217407,-3.370605 -3.757385,-3.370605 -1.539978,0 -2.86908,1.284851 -3.757386,3.370544 -2.250854,-0.273743 -4.028015,0.23468 -4.797302,1.567932 -0.770019,1.333679 -0.321899,3.127502 1.040161,4.939941 -1.36206,1.812439 -1.81018,3.606263 -1.040161,4.939942 0.635742,1.102539 1.958985,1.644531 3.670899,1.644531 0.357177,0 0.736511,-0.03229 1.124877,-0.07941 0.888306,2.087464 2.218079,3.373353 3.758912,3.373353 1.540771,0 2.870483,-1.28595 3.75885,-3.373353 0.388305,0.04706 0.7677,0.07941 1.124939,0.07941 1.711914,0 3.035156,-0.542969 3.671875,-1.645508 0.769165,-1.333618 0.320617,-3.127075 -1.041382,-4.939087 1.361816,-1.812072 1.81012,-3.605651 1.040405,-4.939819 z m -5.670532,0.936524 c -0.141296,-0.08588 -0.277893,-0.17389 -0.423218,-0.257813 -0.145691,-0.08411 -0.290588,-0.158508 -0.435913,-0.238098 0.23175,-0.06995 0.458618,-0.13208 0.68042,-0.186462 0.06378,0.219238 0.123474,0.446716 0.178711,0.682373 z m 2.025085,3.508056 c 0.176209,0.165467 0.343018,0.330689 0.500855,0.495301 -0.157776,0.164672 -0.324585,0.329772 -0.500794,0.4953 0.0037,-0.1651 0.0116,-0.327149 0.0116,-0.494751 0,-0.167969 -0.0079,-0.330444 -0.01166,-0.49585 z m -1.587951,0.49585 c 0,0.649963 -0.03302,1.271301 -0.09058,1.864197 -0.485107,0.34674 -1.00708,0.686401 -1.570556,1.01178 -0.562988,0.324951 -1.117798,0.607055 -1.660217,0.853698 -0.54242,-0.246643 -1.097107,-0.528747 -1.660096,-0.853698 -0.563415,-0.325257 -1.085449,-0.664856 -1.570556,-1.011475 -0.05756,-0.593018 -0.09058,-1.214417 -0.09058,-1.864502 0,-0.650452 0.03308,-1.272278 0.0907,-1.865601 0.485046,-0.346557 1.00708,-0.686096 1.570434,-1.011352 0.56305,-0.325134 1.117859,-0.607239 1.66034,-0.853882 0.542358,0.246704 1.097046,0.528809 1.659973,0.853882 0.563415,0.325317 1.085388,0.665039 1.570434,1.011719 0.05762,0.593261 0.0907,1.214904 0.0907,1.865234 z m -0.615723,4.685486 c -0.22229,-0.05457 -0.449646,-0.116822 -0.681946,-0.187012 0.145874,-0.07989 0.291138,-0.15332 0.437317,-0.237732 0.145386,-0.08392 0.282044,-0.171997 0.423401,-0.257935 -0.0553,0.235779 -0.11499,0.463318 -0.178772,0.682679 z m -5.589844,-0.682618 c 0.141358,0.08588 0.277954,0.173951 0.42334,0.257874 0.146179,0.08441 0.291382,0.157837 0.437195,0.237671 -0.232239,0.07019 -0.459595,0.132446 -0.681824,0.187012 -0.06378,-0.2193 -0.123413,-0.446839 -0.178711,-0.682557 z m -2.024963,-3.507507 c -0.176392,-0.16571 -0.343628,-0.330993 -0.501587,-0.495849 0.15802,-0.164856 0.325134,-0.330262 0.501587,-0.495911 -0.0037,0.165588 -0.01166,0.328247 -0.01166,0.496399 0,0.167847 0.0079,0.330078 0.01166,0.495361 z m 2.203918,-5.182129 c 0.221924,0.05451 0.448853,0.116577 0.680725,0.186646 -0.145507,0.07965 -0.290466,0.154236 -0.43634,0.238403 -0.145325,0.08392 -0.28186,0.171875 -0.423157,0.257752 0.0553,-0.235779 0.114991,-0.463379 0.178772,-0.682801 z m 2.705323,-3.592529 c 0.742553,0 1.522949,0.766663 2.141784,2.082703 -0.689697,0.178772 -1.407043,0.420959 -2.141723,0.72351 -0.73468,-0.302612 -1.452027,-0.5448 -2.141785,-0.723633 0.618835,-1.315978 1.39917,-2.08258 2.141724,-2.08258 z m -7.169922,4.139649 c 0.370666,-0.643921 1.42511,-0.936646 2.874756,-0.814332 -0.190064,0.68689 -0.339234,1.429322 -0.444519,2.21698 -0.629334,0.484864 -1.197632,0.985169 -1.697327,1.493103 -0.830261,-1.193847 -1.103943,-2.252868 -0.73291,-2.895751 z m 0,8.27832 c -0.371033,-0.642883 -0.09735,-1.701904 0.73291,-2.895752 0.499695,0.507934 1.067932,1.008118 1.697205,1.492981 0.105285,0.787658 0.254272,1.529968 0.444335,2.216797 -1.449523,0.122314 -2.503784,-0.170166 -2.87445,-0.814026 z m 7.169922,4.139648 c -0.742859,0 -1.523499,-0.766968 -2.142456,-2.083618 0.689819,-0.178772 1.407653,-0.422302 2.142395,-0.724915 0.734741,0.302674 1.452514,0.546204 2.142456,0.724976 -0.618897,1.316589 -1.399598,2.083557 -2.142395,2.083557 z m 7.169921,-4.139648 c -0.371093,0.64386 -1.425231,0.93634 -2.87445,0.814026 0.190124,-0.68689 0.33905,-1.429383 0.444336,-2.217041 0.628967,-0.484741 1.197143,-0.98468 1.696655,-1.492432 0.830139,1.193726 1.104004,2.252624 0.733459,2.895447 z m -2.430236,-6.875428 c -0.105225,-0.787475 -0.254273,-1.529907 -0.444336,-2.216613 1.449646,-0.122254 2.503845,0.170166 2.873596,0.812744 0.371033,0.643249 0.09735,1.702453 -0.732605,2.896301 -0.499573,-0.507751 -1.067627,-1.007751 -1.696655,-1.492432 z m -25.05658,-3.717346 c 0.441895,0 0.799805,0.358399 0.799805,0.799805 0,0.441406 -0.35791,0.799805 -0.799805,0.799805 h -8.404907 c -0.288757,0.546142 -0.855896,0.922485 -1.516663,0.922485 -0.951172,0 -1.722168,-0.771057 -1.722168,-1.722168 0,-0.951111 0.770996,-1.722168 1.722168,-1.722168 0.660645,0 1.2276,0.376221 1.51648,0.922241 z m 7.294922,0.799805 c 0,0.441406 -0.35791,0.799805 -0.799805,0.799805 h -4.006347 c -0.441895,0 -0.799805,-0.358399 -0.799805,-0.799805 0,-0.441406 0.35791,-0.799805 0.799805,-0.799805 h 4.006347 c 0.441895,0 0.799805,0.358399 0.799805,0.799805 z m 0,5.654297 c 0,0.441406 -0.35791,0.799805 -0.799805,0.799805 h -14.90039 c -0.288941,0.545837 -0.855774,0.921936 -1.516297,0.921936 -0.951172,0 -1.722168,-0.771057 -1.722168,-1.722229 0,-0.951111 0.770996,-1.722168 1.722168,-1.722168 0.66095,0 1.22815,0.376464 1.516846,0.922851 h 14.899841 c 0.441895,0 0.799805,0.358399 0.799805,0.799805 z m 0,5.65332 c 0,0.441407 -0.35791,0.799805 -0.799805,0.799805 H 13.713135 c -0.288758,0.546081 -0.855835,0.922302 -1.516541,0.922302 -0.951172,0 -1.722168,-0.771057 -1.722168,-1.722168 0,-0.951172 0.770996,-1.722229 1.722168,-1.722229 0.660767,0 1.227783,0.376404 1.516602,0.922486 h 14.900085 c 0.441895,-10e-7 0.799805,0.358398 0.799805,0.799804 z"
     id="path2"
     inkscape:connector-curvature="0" /></svg>