<svg id="d0d971d3-2b63-479d-8406-be3dd4c29035" data-name="Capa 1" xmlns="http://www.w3.org/2000/svg" viewBox="0 0 767.38 195.08"><defs><style>.\36 b0eedee-0611-4d3c-ac5c-619b1703441f{fill:#bf0411;}.\35 aa6e9e6-02a9-40dd-b401-61621f98d752{fill:#211915;}</style></defs><title>DUBase_logo</title><path class="6b0eedee-0611-4d3c-ac5c-619b1703441f" d="M297.68,288.52h55.2q16.39,0,24.44,1.37a35.93,35.93,0,0,1,14.41,5.7,35.45,35.45,0,0,1,10.6,11.54,31.26,31.26,0,0,1,4.24,16.15,32.73,32.73,0,0,1-19.4,30q12.62,3.67,19.4,12.53a33.26,33.26,0,0,1,6.78,20.82A41,41,0,0,1,409,404.89a36.9,36.9,0,0,1-12,14.22q-7.58,5.32-18.7,6.55-7,.76-33.63.94h-47V288.52Zm27.88,23v31.93h18.27q16.29,0,20.25-.47,7.16-.85,11.26-4.94a14.58,14.58,0,0,0,4.1-10.78,15.15,15.15,0,0,0-3.53-10.41q-3.53-4-10.5-4.85-4.15-.47-23.83-0.47h-16Zm0,54.91v36.92h25.81q15.07,0,19.12-.85A17.28,17.28,0,0,0,380.61,397q3.91-4.38,3.91-11.73a18,18,0,0,0-3-10.55,17.06,17.06,0,0,0-8.71-6.31q-5.7-2-24.73-2H325.56Z" transform="translate(-37.25 -276.23)"/><path class="6b0eedee-0611-4d3c-ac5c-619b1703441f" d="M223.36,426.6a6.05,6.05,0,0,0-1-.25c-3.11-.25-6.23-0.43-9.34-0.72-10.24-.93-19.6-4.15-27.43-11a37.55,37.55,0,0,1-12.68-22.29,118.55,118.55,0,0,1-1.85-19.4c-0.17-19.51-.22-39-0.29-58.54,0-8.22,0-16.44,0-24.66v-1.87h27.36c0,0.5.08,1,.08,1.56q0,6.13,0,12.25c0,22.14,0,44.28,0,66.42a111.69,111.69,0,0,0,.83,14.78c1.33,9.64,7,15.82,16.24,18.66a36.56,36.56,0,0,0,11.81,1.34,33,33,0,0,0,10.41-1.62c7.78-2.8,12.33-8.26,13.42-16.5a154.32,154.32,0,0,0,1-20.23q0-37.37,0-74.74c0-.64.05-1.28,0.08-2h27.23c0,0.61.06,1.19,0.06,1.77q0,13.77,0,27.53,0,24.21,0,48.41c0,6.86-.31,13.71-1,20.54a55.68,55.68,0,0,1-2.71,13.29,36.54,36.54,0,0,1-17.82,20.51,48.41,48.41,0,0,1-17.16,5.48c-3.25.41-6.51,0.63-9.77,1-0.49,0-1,.19-1.46.28h-6.05Z" transform="translate(-37.25 -276.23)"/><path d="M755.13,325.91a46,46,0,0,0-7-6.59c0.19,0.37.36,0.76,0.61,1.29a24.62,24.62,0,0,1-2.23,2,9.94,9.94,0,0,1-5.88,1.52c-1.93,0-3.86.3-5.94,0.49l4.85,12.78a23,23,0,0,0,17.21-5.82A38.4,38.4,0,0,0,755.13,325.91Z" transform="translate(-37.25 -276.23)"/><path d="M659.73,382.47a31.27,31.27,0,0,0,1.84,10.6c2.42,6.4,6.73,10.92,13.37,13a20,20,0,0,0,10.3.43,14.2,14.2,0,0,0,9.82-7.4c1-1.93,1.83-4,2.83-6.25l25.8,4.32c-0.14.5-.23,0.87-0.36,1.23-3.13,8.43-8,15.55-15.52,20.71a40.48,40.48,0,0,1-16,6.44,59.22,59.22,0,0,1-15,.93c-6.72-.51-13.27-1.69-19.42-4.6-9-4.25-15.21-11.12-19.33-20a58.14,58.14,0,0,1-5-20.29,79.89,79.89,0,0,1,.63-17.8c1.46-9.83,4.93-18.77,11.68-26.25A41.47,41.47,0,0,1,669.28,324a54,54,0,0,1,15.06-.44,46.75,46.75,0,0,1,14.27,3.63,40.23,40.23,0,0,1,8.79,5.27l1,0.78c2.47-2.39,5-4.72,8.38-6l4.66,12.24-4.38,3.79c6.92,12.13,8.23,25.35,8.09,39.11-3.72.07-7.33,0-10.94,0H659.73ZM699,366.28a18.32,18.32,0,0,0,0-2.35,55.61,55.61,0,0,0-.91-5.51c-2.12-8.8-8.88-14.39-16.51-15a18.28,18.28,0,0,0-14.61,4.8c-4.3,4-6.19,9.08-6.66,14.8a8.52,8.52,0,0,0,0,3.3H699Z" transform="translate(-37.25 -276.23)"/><path d="M514.53,424.29H488.59l-3.36-10.63-1.65,1.48a42.55,42.55,0,0,1-34.38,11.13c-4.75-.62-9.33-1.71-13.44-4.2-8.92-5.41-13.6-13.34-13.91-23.81A28.78,28.78,0,0,1,424.42,385,26.51,26.51,0,0,1,439,371.45a86.49,86.49,0,0,1,15.47-4.52c7.34-1.52,14.73-2.78,21.94-4.84,2.27-.65,4.49-1.42,6.78-2.15a25.4,25.4,0,0,0-1-9.25,9,9,0,0,0-5.86-5.88,33.57,33.57,0,0,0-13.28-1.35,26,26,0,0,0-4.3.75,11.72,11.72,0,0,0-7.24,5.1c-1,1.6-1.82,3.36-2.7,5.05-0.2.39-.34,0.82-0.56,1.35l-23.74-4.29c0.36-1.15.65-2.15,1-3.14a40.15,40.15,0,0,1,6.42-12.09c4.59-5.82,10.66-9.24,17.77-11a77.23,77.23,0,0,1,19.8-1.87,80.71,80.71,0,0,1,17.39,1.85,33.76,33.76,0,0,1,11.38,5.06,21.47,21.47,0,0,1,9.53,15,112.08,112.08,0,0,1,1.15,18.54c-0.08,11.9-.21,23.8-0.14,35.7a49.33,49.33,0,0,0,2,15.23c0.93,2.82,2.09,5.55,3.15,8.33C514.14,423.36,514.3,423.72,514.53,424.29ZM483,377.13a4.8,4.8,0,0,0-.69.07c-6.3,1.52-12.6,3-18.88,4.58a45.19,45.19,0,0,0-9,2.94,11.1,11.1,0,0,0-6.08,12.84,14,14,0,0,0,13.35,10.51,22.57,22.57,0,0,0,14.33-4.74,15.42,15.42,0,0,0,6.43-10,84.32,84.32,0,0,0,.65-16A0.7,0.7,0,0,0,483,377.13Z" transform="translate(-37.25 -276.23)"/><path d="M614.4,349.44L589.7,354c-0.19-.52-0.33-0.89-0.46-1.26a14.53,14.53,0,0,0-11.66-10,39.61,39.61,0,0,0-17.22.58,13.74,13.74,0,0,0-3.74,1.55c-4.49,2.71-4.37,8.31.33,10.64a43.22,43.22,0,0,0,7.92,2.88c6.06,1.64,12.18,3.08,18.28,4.59a97.81,97.81,0,0,1,19,6.4c1.4,0.67,2.77,1.44,4.11,2.24a22.25,22.25,0,0,1,10.91,15.76c1.45,8.08.22,15.67-4.52,22.5a34.73,34.73,0,0,1-15.14,12.36,51.66,51.66,0,0,1-14.42,3.68,79.84,79.84,0,0,1-14.78.56c-7-.48-13.83-1.43-20.29-4.22-11.09-4.79-18.58-12.88-22.13-24.5-0.13-.43-0.25-0.87-0.35-1.31a1.29,1.29,0,0,1,.08-0.4l26-4c0.15,0.46.3,0.87,0.42,1.3a19.32,19.32,0,0,0,5.68,9.62,17.22,17.22,0,0,0,8.81,4,36.32,36.32,0,0,0,16.75-.86,17.73,17.73,0,0,0,4.58-2.25c3-2,4-5,3.45-8.46a5.87,5.87,0,0,0-3.51-4.62,38.83,38.83,0,0,0-8.05-2.49c-9.76-2.22-19.5-4.5-28.94-7.87a58,58,0,0,1-7.23-3c-7.22-3.75-12.18-9.43-13.86-17.52-3.13-15.12,4.88-26.93,16.46-32.31a47.46,47.46,0,0,1,13.79-3.7,92,92,0,0,1,16.15-.51,60.5,60.5,0,0,1,17.64,3c9.52,3.33,15.76,10,19.39,19.26C613.55,346.84,613.92,348,614.4,349.44Z" transform="translate(-37.25 -276.23)"/><path d="M728.25,337.63l-3,.65c-1.68-4-3.11-8.17-4.73-12.28a8,8,0,0,1,3-.82Z" transform="translate(-37.25 -276.23)"/><path d="M735.44,337.86h-3c-1.55-4.33-3.53-8.5-4.54-13.13,0.55-.1,1-0.22,1.51-0.26a1.26,1.26,0,0,1,1.46,1c1.42,3.86,2.91,7.69,4.37,11.54A6.5,6.5,0,0,1,735.44,337.86Z" transform="translate(-37.25 -276.23)"/><circle class="6b0eedee-0611-4d3c-ac5c-619b1703441f" cx="736.36" cy="31.02" r="31.02"/><path class="5aa6e9e6-02a9-40dd-b401-61621f98d752" d="M40.42,441.36a32.85,32.85,0,0,1,5.51-.47c3.72,0,6.38,1,8.13,2.84s2.83,4.5,2.83,8.18-1,6.76-2.89,8.86S49,464,45.13,464a36.92,36.92,0,0,1-4.71-.27V441.36ZM43,461.51a14.47,14.47,0,0,0,2.62.17c5.54,0,8.55-3.52,8.55-9.67,0-5.38-2.65-8.79-8.14-8.79a13.07,13.07,0,0,0-3,.3v18Z" transform="translate(-37.25 -276.23)"/><path class="5aa6e9e6-02a9-40dd-b401-61621f98d752" d="M65.87,456.2c0.06,4,2.32,5.68,4.95,5.68a8.52,8.52,0,0,0,4-.85l0.45,2.13a10.5,10.5,0,0,1-4.8,1c-4.44,0-7.09-3.31-7.09-8.25s2.56-8.82,6.76-8.82c4.71,0,6,4.7,6,7.71A12.8,12.8,0,0,1,76,456.2H65.87Zm7.69-2.13c0-1.89-.69-4.83-3.64-4.83-2.65,0-3.81,2.77-4,4.83h7.66Z" transform="translate(-37.25 -276.23)"/><path class="5aa6e9e6-02a9-40dd-b401-61621f98d752" d="M95.52,459.38c0,1.69,0,3.18.12,4.46H93.32l-0.15-2.67H93.11a5.37,5.37,0,0,1-4.77,3c-2.26,0-5-1.42-5-7.17v-9.57H86v9.06c0,3.11.83,5.21,3.22,5.21a3.85,3.85,0,0,0,3.46-2.7,4.87,4.87,0,0,0,.24-1.52v-10h2.62v11.9Z" transform="translate(-37.25 -276.23)"/><path class="5aa6e9e6-02a9-40dd-b401-61621f98d752" d="M103.87,463.84c0.06-1.12.12-2.77,0.12-4.23V439.84h2.59v10.28h0.06a5.27,5.27,0,0,1,4.92-3c3.58,0,6.11,3.38,6.08,8.35,0,5.85-3.25,8.76-6.47,8.76a5,5,0,0,1-4.83-3.08h-0.09l-0.12,2.7h-2.26Zm2.71-6.56a6.25,6.25,0,0,0,.12,1.08,4.18,4.18,0,0,0,3.93,3.48c2.74,0,4.38-2.54,4.38-6.29,0-3.28-1.49-6.08-4.29-6.08a4.33,4.33,0,0,0-4,3.65,6.59,6.59,0,0,0-.15,1.22v2.94Z" transform="translate(-37.25 -276.23)"/><path class="5aa6e9e6-02a9-40dd-b401-61621f98d752" d="M128,442.88a1.66,1.66,0,0,1-1.67,1.83,1.68,1.68,0,0,1-1.58-1.83,1.72,1.72,0,0,1,1.64-1.86A1.68,1.68,0,0,1,128,442.88Zm-2.92,21V447.48h2.62v16.36h-2.62Z" transform="translate(-37.25 -276.23)"/><path class="5aa6e9e6-02a9-40dd-b401-61621f98d752" d="M146,461.31h-0.06a5,5,0,0,1-4.71,2.91c-3.37,0-6.11-3.31-6.11-8.28,0-6.12,3.49-8.82,6.53-8.82a4.68,4.68,0,0,1,4.44,2.84h0.06l0.09-2.47h2.47c-0.06,1.39-.09,2.81-0.09,4.5v18.56H146v-9.23Zm0-7.2a5.73,5.73,0,0,0-.12-1.25,4,4,0,0,0-3.75-3.38c-2.71,0-4.35,2.6-4.35,6.29,0,3.25,1.37,6.08,4.26,6.08a4,4,0,0,0,3.75-3.25,5.61,5.61,0,0,0,.21-1.42v-3.08Z" transform="translate(-37.25 -276.23)"/><path class="5aa6e9e6-02a9-40dd-b401-61621f98d752" d="M169.1,459.38c0,1.69,0,3.18.12,4.46H166.9l-0.15-2.67h-0.06a5.37,5.37,0,0,1-4.77,3c-2.26,0-5-1.42-5-7.17v-9.57h2.62v9.06c0,3.11.83,5.21,3.22,5.21a3.85,3.85,0,0,0,3.46-2.7,4.89,4.89,0,0,0,.24-1.52v-10h2.62v11.9Z" transform="translate(-37.25 -276.23)"/><path class="5aa6e9e6-02a9-40dd-b401-61621f98d752" d="M180.48,442.88a1.66,1.66,0,0,1-1.67,1.83,1.68,1.68,0,0,1-1.58-1.83,1.72,1.72,0,0,1,1.64-1.86A1.68,1.68,0,0,1,180.48,442.88Zm-2.92,21V447.48h2.62v16.36h-2.62Z" transform="translate(-37.25 -276.23)"/><path class="5aa6e9e6-02a9-40dd-b401-61621f98d752" d="M191.81,442.78v4.7h3.75v2.26h-3.75v8.82c0,2,.51,3.18,2,3.18a5.19,5.19,0,0,0,1.52-.2l0.12,2.23a5.73,5.73,0,0,1-2.32.41,3.42,3.42,0,0,1-2.83-1.25c-0.75-.88-1-2.33-1-4.26v-8.92H187v-2.26h2.23v-3.92Z" transform="translate(-37.25 -276.23)"/><path class="5aa6e9e6-02a9-40dd-b401-61621f98d752" d="M205.55,442.88a1.66,1.66,0,0,1-1.67,1.83,1.68,1.68,0,0,1-1.58-1.83,1.72,1.72,0,0,1,1.64-1.86A1.68,1.68,0,0,1,205.55,442.88Zm-2.92,21V447.48h2.62v16.36h-2.62Z" transform="translate(-37.25 -276.23)"/><path class="5aa6e9e6-02a9-40dd-b401-61621f98d752" d="M213.71,451.91c0-1.69,0-3.08-.12-4.43h2.32l0.15,2.7h0.06a5.25,5.25,0,0,1,4.77-3.08c2,0,5.1,1.35,5.1,7v9.77h-2.62v-9.43c0-2.64-.86-4.83-3.34-4.83a3.84,3.84,0,0,0-3.52,3,4.81,4.81,0,0,0-.18,1.39v9.84h-2.62V451.91Z" transform="translate(-37.25 -276.23)"/><path class="5aa6e9e6-02a9-40dd-b401-61621f98d752" d="M242.35,463.84l-0.21-2.06h-0.09a5.19,5.19,0,0,1-4.41,2.43,4.39,4.39,0,0,1-4.41-4.7c0-4,3.1-6.12,8.67-6.08v-0.34c0-1.35-.33-3.79-3.28-3.79a6.57,6.57,0,0,0-3.75,1.22l-0.6-2a8.17,8.17,0,0,1,4.74-1.45c4.41,0,5.48,3.41,5.48,6.69v6.12a26,26,0,0,0,.24,3.92h-2.38ZM242,455.49c-2.86-.07-6.11.51-6.11,3.68,0,1.93,1.13,2.84,2.47,2.84a3.66,3.66,0,0,0,3.49-2.74,3.47,3.47,0,0,0,.15-0.95v-2.84Z" transform="translate(-37.25 -276.23)"/><path class="5aa6e9e6-02a9-40dd-b401-61621f98d752" d="M255.88,442.78v4.7h3.75v2.26h-3.75v8.82c0,2,.51,3.18,2,3.18a5.19,5.19,0,0,0,1.52-.2l0.12,2.23a5.73,5.73,0,0,1-2.32.41,3.42,3.42,0,0,1-2.83-1.25c-0.75-.88-1-2.33-1-4.26v-8.92h-2.23v-2.26h2.23v-3.92Z" transform="translate(-37.25 -276.23)"/><path class="5aa6e9e6-02a9-40dd-b401-61621f98d752" d="M269.62,442.88a1.66,1.66,0,0,1-1.67,1.83,1.68,1.68,0,0,1-1.58-1.83A1.72,1.72,0,0,1,268,441,1.68,1.68,0,0,1,269.62,442.88Zm-2.92,21V447.48h2.62v16.36H266.7Z" transform="translate(-37.25 -276.23)"/><path class="5aa6e9e6-02a9-40dd-b401-61621f98d752" d="M277.78,451.91c0-1.69,0-3.08-.12-4.43H280l0.15,2.7h0.06a5.25,5.25,0,0,1,4.77-3.08c2,0,5.1,1.35,5.1,7v9.77h-2.62v-9.43c0-2.64-.86-4.83-3.34-4.83a3.84,3.84,0,0,0-3.52,3,4.81,4.81,0,0,0-.18,1.39v9.84h-2.62V451.91Z" transform="translate(-37.25 -276.23)"/><path class="5aa6e9e6-02a9-40dd-b401-61621f98d752" d="M310.86,447.48c-0.06,1.18-.12,2.5-0.12,4.5v9.5c0,3.75-.66,6.05-2.06,7.47a7.08,7.08,0,0,1-5.24,2,8.46,8.46,0,0,1-4.8-1.35l0.66-2.26a7.43,7.43,0,0,0,4.23,1.28c2.68,0,4.65-1.59,4.65-5.71V461h-0.06a5,5,0,0,1-4.59,2.74c-3.58,0-6.14-3.45-6.14-8,0-5.54,3.19-8.69,6.5-8.69a4.75,4.75,0,0,1,4.5,2.84h0.06l0.12-2.47h2.29Zm-2.71,6.46a4.79,4.79,0,0,0-.15-1.35,3.89,3.89,0,0,0-3.67-3.14c-2.5,0-4.29,2.4-4.29,6.19,0,3.21,1.43,5.88,4.26,5.88a3.92,3.92,0,0,0,3.64-3,5.82,5.82,0,0,0,.21-1.59v-2.94Z" transform="translate(-37.25 -276.23)"/><path class="5aa6e9e6-02a9-40dd-b401-61621f98d752" d="M340.13,453.16h-7.81v8.21H341v2.47H329.73V441.06h10.85v2.47h-8.25v7.2h7.81v2.43Z" transform="translate(-37.25 -276.23)"/><path class="5aa6e9e6-02a9-40dd-b401-61621f98d752" d="M348.41,451.91c0-1.69,0-3.08-.12-4.43h2.32l0.15,2.7h0.06a5.25,5.25,0,0,1,4.77-3.08c2,0,5.1,1.35,5.1,7v9.77h-2.62v-9.43c0-2.64-.86-4.83-3.34-4.83a3.84,3.84,0,0,0-3.52,3A4.81,4.81,0,0,0,351,454v9.84h-2.62V451.91Z" transform="translate(-37.25 -276.23)"/><path class="5aa6e9e6-02a9-40dd-b401-61621f98d752" d="M367.42,462.12l6.53-9.63c0.63-.88,1.22-1.66,1.88-2.54v-0.07H368v-2.4h11l0,1.86-6.44,9.5c-0.6.91-1.19,1.72-1.85,2.57v0.07h8.43v2.37H367.42v-1.72Z" transform="translate(-37.25 -276.23)"/><path class="5aa6e9e6-02a9-40dd-b401-61621f98d752" d="M387.6,447.48l3.16,9.67c0.33,1.08.69,2.37,0.92,3.35h0.06c0.27-1,.57-2.23.92-3.41l2.86-9.6h2.77l-3.93,11.66c-1.88,5.61-3.16,8.49-4.95,10.24a6.83,6.83,0,0,1-3.22,1.93l-0.66-2.5a6.75,6.75,0,0,0,2.29-1.45A9,9,0,0,0,390,464a2.36,2.36,0,0,0,.21-0.71,2.87,2.87,0,0,0-.18-0.78l-5.33-15.08h2.86Z" transform="translate(-37.25 -276.23)"/><path class="5aa6e9e6-02a9-40dd-b401-61621f98d752" d="M404.79,451.91c0-1.69,0-3.08-.12-4.43H407l0.12,2.64h0.09a4.93,4.93,0,0,1,4.53-3,4.34,4.34,0,0,1,4.08,3.28h0.06a6.57,6.57,0,0,1,1.61-2.13,4.55,4.55,0,0,1,3.19-1.15c1.91,0,4.74,1.42,4.74,7.1v9.63h-2.56v-9.26c0-3.14-1-5-3.13-5a3.5,3.5,0,0,0-3.1,2.7,5.52,5.52,0,0,0-.21,1.49v10.11h-2.56V454c0-2.6-1-4.5-3-4.5-1.64,0-2.83,1.49-3.25,3a4.61,4.61,0,0,0-.21,1.45v9.87h-2.56V451.91Z" transform="translate(-37.25 -276.23)"/><path class="5aa6e9e6-02a9-40dd-b401-61621f98d752" d="M435.22,456.2c0.06,4,2.32,5.68,4.95,5.68a8.52,8.52,0,0,0,4-.85l0.45,2.13a10.49,10.49,0,0,1-4.8,1c-4.44,0-7.09-3.31-7.09-8.25s2.56-8.82,6.76-8.82c4.71,0,6,4.7,6,7.71a12.65,12.65,0,0,1-.09,1.39H435.22Zm7.69-2.13c0-1.89-.69-4.83-3.63-4.83-2.65,0-3.81,2.77-4,4.83h7.66Z" transform="translate(-37.25 -276.23)"/><path class="5aa6e9e6-02a9-40dd-b401-61621f98d752" d="M452.44,460.8A6.31,6.31,0,0,0,455.9,462c1.91,0,2.8-1.08,2.8-2.43s-0.75-2.2-2.68-3c-2.59-1-3.81-2.67-3.81-4.63a4.69,4.69,0,0,1,5-4.8,6.55,6.55,0,0,1,3.55,1l-0.66,2.16a5.14,5.14,0,0,0-2.95-.95,2.21,2.21,0,0,0-2.41,2.23c0,1.35.86,2,2.74,2.77,2.5,1.08,3.78,2.5,3.78,4.94,0,2.87-2,4.9-5.39,4.9a7.46,7.46,0,0,1-4.05-1.12Z" transform="translate(-37.25 -276.23)"/><path class="5aa6e9e6-02a9-40dd-b401-61621f98d752" d="M471.52,440.69a42.22,42.22,0,0,1-2.8,8l-1.67.24A53.14,53.14,0,0,0,468.8,441Z" transform="translate(-37.25 -276.23)"/><path class="5aa6e9e6-02a9-40dd-b401-61621f98d752" d="M486.09,460.26a8.4,8.4,0,0,0,4.65,1.49c2.65,0,4.2-1.59,4.2-3.89,0-2.13-1.07-3.35-3.78-4.53-3.28-1.32-5.3-3.25-5.3-6.46,0-3.55,2.59-6.19,6.5-6.19a8.26,8.26,0,0,1,4.44,1.12l-0.72,2.4a7.28,7.28,0,0,0-3.81-1.08,3.41,3.41,0,0,0-3.78,3.41c0,2.13,1.22,3.18,4,4.39,3.4,1.49,5.13,3.35,5.13,6.69,0,3.52-2.3,6.56-7,6.56a9.43,9.43,0,0,1-5.12-1.45Z" transform="translate(-37.25 -276.23)"/><path class="5aa6e9e6-02a9-40dd-b401-61621f98d752" d="M517.23,459.38c0,1.69,0,3.18.12,4.46H515l-0.15-2.67h-0.06a5.37,5.37,0,0,1-4.77,3c-2.26,0-5-1.42-5-7.17v-9.57h2.62v9.06c0,3.11.83,5.21,3.22,5.21a3.85,3.85,0,0,0,3.46-2.7,4.86,4.86,0,0,0,.24-1.52v-10h2.62v11.9Z" transform="translate(-37.25 -276.23)"/><path class="5aa6e9e6-02a9-40dd-b401-61621f98d752" d="M525.57,463.84c0.06-1.12.12-2.77,0.12-4.23V439.84h2.59v10.28h0.06a5.27,5.27,0,0,1,4.92-3c3.58,0,6.11,3.38,6.08,8.35,0,5.85-3.25,8.76-6.47,8.76a5,5,0,0,1-4.83-3.08H528l-0.12,2.7h-2.27Zm2.71-6.56a6.35,6.35,0,0,0,.12,1.08,4.18,4.18,0,0,0,3.93,3.48c2.74,0,4.38-2.54,4.38-6.29,0-3.28-1.49-6.08-4.29-6.08a4.33,4.33,0,0,0-4,3.65,6.68,6.68,0,0,0-.15,1.22v2.94Z" transform="translate(-37.25 -276.23)"/><path class="5aa6e9e6-02a9-40dd-b401-61621f98d752" d="M546.4,460.8a6.31,6.31,0,0,0,3.46,1.18c1.91,0,2.8-1.08,2.8-2.43s-0.75-2.2-2.68-3c-2.59-1-3.81-2.67-3.81-4.63a4.69,4.69,0,0,1,5-4.8,6.55,6.55,0,0,1,3.55,1L554,450.29a5.14,5.14,0,0,0-2.95-.95,2.21,2.21,0,0,0-2.41,2.23c0,1.35.86,2,2.74,2.77,2.5,1.08,3.79,2.5,3.79,4.94,0,2.87-2,4.9-5.39,4.9a7.46,7.46,0,0,1-4.05-1.12Z" transform="translate(-37.25 -276.23)"/><path class="5aa6e9e6-02a9-40dd-b401-61621f98d752" d="M565.83,442.78v4.7h3.75v2.26h-3.75v8.82c0,2,.51,3.18,2,3.18a5.19,5.19,0,0,0,1.52-.2l0.12,2.23a5.72,5.72,0,0,1-2.32.41,3.42,3.42,0,0,1-2.83-1.25c-0.75-.88-1-2.33-1-4.26v-8.92H561v-2.26h2.23v-3.92Z" transform="translate(-37.25 -276.23)"/><path class="5aa6e9e6-02a9-40dd-b401-61621f98d752" d="M576.65,452.58c0-1.93,0-3.58-.12-5.1h2.3l0.09,3.21H579c0.66-2.2,2.24-3.58,4-3.58a2.51,2.51,0,0,1,.75.1V450a3.51,3.51,0,0,0-.89-0.1c-1.85,0-3.16,1.59-3.52,3.82a9.43,9.43,0,0,0-.12,1.39v8.72h-2.59V452.58Z" transform="translate(-37.25 -276.23)"/><path class="5aa6e9e6-02a9-40dd-b401-61621f98d752" d="M598.34,463.84l-0.21-2.06H598a5.2,5.2,0,0,1-4.41,2.43,4.39,4.39,0,0,1-4.41-4.7c0-4,3.1-6.12,8.67-6.08v-0.34c0-1.35-.33-3.79-3.28-3.79a6.57,6.57,0,0,0-3.75,1.22l-0.6-2a8.17,8.17,0,0,1,4.74-1.45c4.41,0,5.48,3.41,5.48,6.69v6.12a26.11,26.11,0,0,0,.24,3.92h-2.38ZM598,455.49c-2.86-.07-6.11.51-6.11,3.68,0,1.93,1.13,2.84,2.47,2.84a3.66,3.66,0,0,0,3.49-2.74,3.51,3.51,0,0,0,.15-0.95v-2.84Z" transform="translate(-37.25 -276.23)"/><path class="5aa6e9e6-02a9-40dd-b401-61621f98d752" d="M611.88,442.78v4.7h3.75v2.26h-3.75v8.82c0,2,.51,3.18,2,3.18a5.19,5.19,0,0,0,1.52-.2l0.12,2.23a5.73,5.73,0,0,1-2.33.41,3.42,3.42,0,0,1-2.83-1.25c-0.75-.88-1-2.33-1-4.26v-8.92h-2.23v-2.26h2.23v-3.92Z" transform="translate(-37.25 -276.23)"/><path class="5aa6e9e6-02a9-40dd-b401-61621f98d752" d="M624,456.2c0.06,4,2.32,5.68,4.95,5.68a8.52,8.52,0,0,0,4-.85l0.45,2.13a10.49,10.49,0,0,1-4.8,1c-4.44,0-7.09-3.31-7.09-8.25s2.56-8.82,6.76-8.82c4.71,0,6,4.7,6,7.71a12.65,12.65,0,0,1-.09,1.39H624Zm7.69-2.13c0-1.89-.69-4.83-3.63-4.83-2.65,0-3.81,2.77-4,4.83h7.66Z" transform="translate(-37.25 -276.23)"/><path class="5aa6e9e6-02a9-40dd-b401-61621f98d752" d="M652.08,441.36a32.86,32.86,0,0,1,5.51-.47c3.73,0,6.38,1,8.14,2.84s2.83,4.5,2.83,8.18-1,6.76-2.89,8.86-5,3.28-8.88,3.28a36.93,36.93,0,0,1-4.71-.27V441.36Zm2.59,20.15a14.46,14.46,0,0,0,2.62.17c5.54,0,8.55-3.52,8.55-9.67,0-5.38-2.65-8.79-8.14-8.79a13.06,13.06,0,0,0-3,.3v18Z" transform="translate(-37.25 -276.23)"/><path class="5aa6e9e6-02a9-40dd-b401-61621f98d752" d="M683.93,463.84l-0.21-2.06h-0.09a5.19,5.19,0,0,1-4.41,2.43,4.39,4.39,0,0,1-4.41-4.7c0-4,3.1-6.12,8.67-6.08v-0.34c0-1.35-.33-3.79-3.28-3.79a6.57,6.57,0,0,0-3.75,1.22l-0.6-2a8.17,8.17,0,0,1,4.74-1.45c4.41,0,5.48,3.41,5.48,6.69v6.12a26.11,26.11,0,0,0,.24,3.92h-2.38Zm-0.39-8.35c-2.86-.07-6.11.51-6.11,3.68,0,1.93,1.13,2.84,2.47,2.84a3.66,3.66,0,0,0,3.49-2.74,3.51,3.51,0,0,0,.15-0.95v-2.84Z" transform="translate(-37.25 -276.23)"/><path class="5aa6e9e6-02a9-40dd-b401-61621f98d752" d="M697.46,442.78v4.7h3.75v2.26h-3.75v8.82c0,2,.51,3.18,2,3.18a5.19,5.19,0,0,0,1.52-.2l0.12,2.23a5.72,5.72,0,0,1-2.32.41,3.42,3.42,0,0,1-2.83-1.25c-0.75-.88-1-2.33-1-4.26v-8.92h-2.23v-2.26h2.23v-3.92Z" transform="translate(-37.25 -276.23)"/><path class="5aa6e9e6-02a9-40dd-b401-61621f98d752" d="M716.27,463.84l-0.21-2.06H716a5.2,5.2,0,0,1-4.41,2.43,4.39,4.39,0,0,1-4.41-4.7c0-4,3.1-6.12,8.67-6.08v-0.34c0-1.35-.33-3.79-3.28-3.79a6.57,6.57,0,0,0-3.75,1.22l-0.6-2a8.17,8.17,0,0,1,4.74-1.45c4.41,0,5.48,3.41,5.48,6.69v6.12a26.11,26.11,0,0,0,.24,3.92h-2.38Zm-0.39-8.35c-2.86-.07-6.11.51-6.11,3.68,0,1.93,1.13,2.84,2.47,2.84a3.66,3.66,0,0,0,3.49-2.74,3.51,3.51,0,0,0,.15-0.95v-2.84Z" transform="translate(-37.25 -276.23)"/><path class="5aa6e9e6-02a9-40dd-b401-61621f98d752" d="M726.64,463.84c0.06-1.12.12-2.77,0.12-4.23V439.84h2.59v10.28h0.06a5.27,5.27,0,0,1,4.92-3c3.58,0,6.11,3.38,6.08,8.35,0,5.85-3.25,8.76-6.47,8.76a5,5,0,0,1-4.83-3.08H729l-0.12,2.7h-2.27Zm2.71-6.56a6.25,6.25,0,0,0,.12,1.08,4.18,4.18,0,0,0,3.93,3.48c2.74,0,4.38-2.54,4.38-6.29,0-3.28-1.49-6.08-4.29-6.08a4.33,4.33,0,0,0-4,3.65,6.68,6.68,0,0,0-.15,1.22v2.94Z" transform="translate(-37.25 -276.23)"/><path class="5aa6e9e6-02a9-40dd-b401-61621f98d752" d="M755.81,463.84l-0.21-2.06h-0.09a5.19,5.19,0,0,1-4.41,2.43,4.39,4.39,0,0,1-4.41-4.7c0-4,3.1-6.12,8.67-6.08v-0.34c0-1.35-.33-3.79-3.28-3.79a6.57,6.57,0,0,0-3.75,1.22l-0.6-2a8.17,8.17,0,0,1,4.74-1.45c4.41,0,5.48,3.41,5.48,6.69v6.12a26.11,26.11,0,0,0,.24,3.92h-2.38Zm-0.39-8.35c-2.86-.07-6.11.51-6.11,3.68,0,1.93,1.13,2.84,2.47,2.84a3.66,3.66,0,0,0,3.49-2.74,3.51,3.51,0,0,0,.15-0.95v-2.84Z" transform="translate(-37.25 -276.23)"/><path class="5aa6e9e6-02a9-40dd-b401-61621f98d752" d="M765.94,460.8A6.31,6.31,0,0,0,769.4,462c1.91,0,2.8-1.08,2.8-2.43s-0.75-2.2-2.68-3c-2.59-1-3.81-2.67-3.81-4.63a4.69,4.69,0,0,1,5-4.8,6.55,6.55,0,0,1,3.55,1l-0.66,2.16a5.14,5.14,0,0,0-2.95-.95,2.21,2.21,0,0,0-2.41,2.23c0,1.35.86,2,2.74,2.77,2.5,1.08,3.78,2.5,3.78,4.94,0,2.87-2,4.9-5.39,4.9a7.46,7.46,0,0,1-4.05-1.12Z" transform="translate(-37.25 -276.23)"/><path class="5aa6e9e6-02a9-40dd-b401-61621f98d752" d="M783.67,456.2c0.06,4,2.32,5.68,4.95,5.68a8.52,8.52,0,0,0,4-.85l0.45,2.13a10.5,10.5,0,0,1-4.8,1c-4.44,0-7.09-3.31-7.09-8.25s2.56-8.82,6.76-8.82c4.71,0,6,4.7,6,7.71a12.65,12.65,0,0,1-.09,1.39H783.67Zm7.69-2.13c0-1.89-.69-4.83-3.64-4.83-2.65,0-3.81,2.77-4,4.83h7.66Z" transform="translate(-37.25 -276.23)"/><path d="M37.25,289l19.51,0c12.2,0,24.4-.06,36.6.09a83.47,83.47,0,0,1,18.13,1.94,45.48,45.48,0,0,1,25.07,15.59,62.38,62.38,0,0,1,13,27.3,117.65,117.65,0,0,1,2.27,29.16,86.91,86.91,0,0,1-2.88,20.45,64.68,64.68,0,0,1-12.72,24.81c-5.71,6.76-13,11-21.29,13.77a61.76,61.76,0,0,1-14,2.76c-6,.57-12,0.54-18,0.53H39.17a15.44,15.44,0,0,1-1.92-.24V289ZM65.18,402.23a9.18,9.18,0,0,0,1.09.13c9.22-.06,18.45-0.06,27.67-0.23a36.32,36.32,0,0,0,9.68-1.44c7.14-2.12,12.35-6.39,15.11-13.43,0.28-.7.58-1.4,0.84-2.1,2.52-6.69,3.32-13.69,3.61-20.75a135.49,135.49,0,0,0-.56-21.29,46.89,46.89,0,0,0-4.21-15.36,25.07,25.07,0,0,0-17.19-14,59.51,59.51,0,0,0-13.33-1.42c-7.05-.14-14.11-0.08-21.17-0.1-0.49,0-1,.05-1.53.08v89.92Z" transform="translate(-37.25 -276.23)"/></svg>